<svg xmlns="http://www.w3.org/2000/svg" version="1.1" xmlns:xlink="http://www.w3.org/1999/xlink" xmlns:svgjs="http://svgjs.dev/svgjs" width="2000" height="1500" viewBox="0 0 2000 1500"><rect width="2000" height="1500" fill="#d9bca9"></rect><g transform="matrix(0.75,0,0,0.75,250.4758857142857,151.23522267206476)"><svg viewBox="0 0 309 247" data-background-color="#d9bca9" preserveAspectRatio="xMidYMid meet" height="1598" width="2000" xmlns="http://www.w3.org/2000/svg" xmlns:xlink="http://www.w3.org/1999/xlink"><g id="tight-bounds" transform="matrix(1,0,0,1,-0.0980324571428639,-0.09999999999999432)"><svg viewBox="0 0 309.1960649142857 247.2" height="247.2" width="309.1960649142857"><g><svg viewBox="0 0 309.1960649142857 247.2" height="247.2" width="309.1960649142857"><g transform="matrix(1,0,0,1,154.16635062857142,0)"><svg viewBox="0 0 155.0297142857143 247.2" height="247.2" width="155.0297142857143"><g id="textblocktransform"><svg viewBox="0 0 155.0297142857143 247.2" height="247.2" width="155.0297142857143" id="textblock"><g><svg viewBox="0 0 155.0297142857143 247.2" height="247.2" width="155.0297142857143"><g transform="matrix(1,0,0,1,0,0)"><svg width="155.0297142857143" viewBox="4 -35 21.949999999999996 35" height="247.2" data-palette-color="#954712"><path d="M23.35-25.6L23.35-25.6Q23.35-18.4 18.4-15.95L18.4-15.95 25.95 0 22.3 0 15.2-14.9Q13.4-14.6 11.25-14.6L11.25-14.6 7.4-14.6 7.4 0 4 0 4-35 11.25-35Q17.35-35 20.15-33.1L20.15-33.1Q23.35-30.95 23.35-25.6ZM11-32.25L7.4-32.25 7.4-17.35 11-17.35Q15.45-17.35 17.7-19.15 19.95-20.95 19.95-25.4L19.95-25.4Q19.95-31.1 14.75-32L14.75-32Q13.1-32.25 11-32.25L11-32.25Z" opacity="1" transform="matrix(1,0,0,1,0,0)" fill="#954712" class="wordmark-text-0" data-fill-palette-color="primary" id="text-0"></path></svg></g></svg></g></svg></g></svg></g><g transform="matrix(1,0,0,1,0,104.83038942659596)"><svg viewBox="0 0 95.80836342857144 37.53922114680806" height="37.53922114680806" width="95.80836342857144"><g><svg xmlns="http://www.w3.org/2000/svg" xmlns:xlink="http://www.w3.org/1999/xlink" version="1.1" x="0" y="0" viewBox="1.686929906668017 31.072 96.62706173950929 37.86" enable-background="new 0 0 100 100" xml:space="preserve" height="37.53922114680806" width="95.80836342857144" class="icon-icon-0" data-fill-palette-color="accent" id="icon-0"><g fill="#551e19" data-fill-palette-color="accent"><path d="M97.029 39.568c-0.836-0.596-16.424-3.397-23.09-4.574-10.736-1.897-22.972-3.922-25.111-3.922-2.507 0-8.356 3.231-15.179 7.135-2.5 1.432-5.336 3.054-5.896 3.161-0.038 0.005-0.119 0.014-0.266 0.018-1.065-5.325-6.907-7.331-10.493-7.331-0.192 0-0.378 0.005-0.56 0.016-0.593 0.033-1.193 0.054-1.774 0.075-2.97 0.103-5.772 0.201-8.125 1.896-1.816 1.309-4.673 8.047-4.843 15.222C1.54 57.729 4.839 66.758 7.106 67.77l0.123 0.043c2.767 0.742 5.354 1.119 7.692 1.119 8.407 0 11.546-4.719 12.382-6.354l0.377 0.032c0.495 0.199 2.428 0.943 5.687 1.797 0.543 0.141 1.155 0.209 1.872 0.209 1.861 0 4.003-0.477 5.724-0.863 0.954-0.212 1.779-0.396 2.271-0.436 0.518-0.039 1.436-0.06 2.729-0.06 0.689 0 1.412 0.007 2.082 0.015 0.799 1.625 2.305 3.203 3.658 3.203 0.059 0 0.114-0.004 0.17-0.01 0.882-0.089 2.004-0.732 3.185-1.479 0.047 0.104 0.098 0.214 0.156 0.326 0.609 1.166 1.812 2.526 3.196 2.526 0.45 0 0.87-0.146 1.245-0.425l0.176-0.132c0.783-0.585 3.134-2.345 5.865-4.522 9.06-0.625 9.748-1.502 10.098-1.945 0.654-0.834 0.826-1.856 0.496-2.961-0.312-1.043-1.049-2.025-1.825-2.697 3.233-3.213 4.271-5.142 3.458-6.379-0.566-0.864-1.622-1.87-3.145-3.006 8.726 0.392 14.548 0.592 17.32 0.592 4.252 0 5.644-1.55 6.061-2.85C98.664 41.93 97.842 40.146 97.029 39.568zM6.162 63.744c-0.463-0.994-0.947-2.227-1.382-3.602l5.593 6.67c-0.713-0.131-1.442-0.293-2.185-0.48L6.162 63.744zM4.077 57.575c-0.262-1.134-0.469-2.312-0.592-3.496l10.313 13.149c-0.571-0.033-1.159-0.084-1.76-0.16L4.077 57.575zM24.024 63.957l0.088 0.087c-0.135 0.131-0.279 0.261-0.43 0.392l-0.117-0.117C23.731 64.204 23.882 64.082 24.024 63.957zM22.542 64.868l0.248 0.25c-0.229 0.153-0.475 0.309-0.734 0.456l-0.434-0.434C21.952 65.07 22.259 64.98 22.542 64.868zM19.963 65.262c0.072 0.004 0.144 0.006 0.215 0.006l0.83 0.832c-0.323 0.142-0.665 0.274-1.026 0.397l-1.076-1.358C19.247 65.203 19.601 65.243 19.963 65.262zM24.871 63.23l-0.095-0.094c0.175-0.236 0.317-0.472 0.43-0.697l0.232 0.021C25.286 62.691 25.099 62.954 24.871 63.23zM16.933 64.438l1.891 2.393c-0.326 0.077-0.664 0.145-1.018 0.204L9.696 56.492l-0.883 0.679 7.711 10.022c-0.414 0.035-0.844 0.055-1.289 0.063L3.358 52.12c-0.004-0.274-0.006-0.55 0-0.821 0.172-7.285 3.151-13.186 4.15-13.906 1.94-1.398 4.499-1.487 7.207-1.581 0.592-0.021 1.201-0.042 1.812-0.077 0.15-0.009 0.307-0.013 0.465-0.013 2.642 0 6.729 1.24 8.326 4.429-1.043-1.041-2.633-1.997-4.459-1.997-1.609 0-3.135 0.709-4.543 2.104l-0.008-0.003-0.152 0.164c-0.234 0.244-0.465 0.503-0.693 0.783-0.1 0.122-0.195 0.249-0.29 0.381-0.079 0.11-0.155 0.224-0.231 0.34-0.014 0.02-0.028 0.04-0.043 0.062-1.188 1.838-2.073 4.488-2.5 7.352-0.002 0.003-0.002 0.005-0.002 0.008-0.03 0.203-0.059 0.404-0.084 0.609-0.006 0.049-0.012 0.097-0.018 0.146-0.02 0.16-0.037 0.32-0.053 0.481-0.01 0.099-0.02 0.194-0.028 0.293-0.009 0.116-0.021 0.231-0.028 0.349-0.011 0.145-0.021 0.289-0.029 0.435-0.004 0.073-0.01 0.144-0.014 0.217-0.008 0.188-0.015 0.381-0.021 0.571-0.001 0.029-0.002 0.061-0.003 0.09-0.059 2.311 0.206 4.628 0.876 6.662 0.004 0.011 0.008 0.023 0.012 0.035 0.063 0.19 0.132 0.379 0.203 0.565 0.004 0.011 0.008 0.022 0.013 0.032 0.082 0.213 0.166 0.422 0.258 0.627 0.094 0.206 0.19 0.407 0.293 0.602l0.162 0.318 0.014 0.002C14.729 62.756 15.733 63.783 16.933 64.438zM51.703 64.805c-0.29 0-1.07-0.55-1.722-1.504 0.492 0.01 0.807 0.016 0.816 0.016l0.028 0.002c0.008 0 0.099-0.002 0.255-0.004 0.008 0 0.015 0 0.025 0 0.018 0 0.039 0 0.057 0 0.576-0.008 1.849-0.028 3.527-0.071-0.078 0.048-0.16 0.1-0.252 0.159C53.758 63.837 52.34 64.741 51.703 64.805zM58.833 65.945l-0.177 0.134c-0.109 0.08-0.188 0.091-0.246 0.091-0.758 0-1.816-1.568-1.936-2.15 0.151-0.338 0.061-0.615-0.018-0.762l-0.034-0.062c1.818-0.053 3.912-0.131 6.022-0.24 0.113-0.005 0.224-0.012 0.334-0.02C60.91 64.395 59.423 65.504 58.833 65.945zM76.518 49.675c0.015 0.113 0.021 1.128-3.562 4.627-0.001-0.001-0.004-0.002-0.005-0.002-0.023-0.007-0.051-0.013-0.073-0.021-0.022-0.006-0.044-0.012-0.067-0.02-0.028-0.006-0.06-0.015-0.091-0.021-0.022-0.008-0.045-0.014-0.069-0.02-0.031-0.008-0.066-0.017-0.102-0.025-0.025-0.008-0.052-0.012-0.076-0.021-0.039-0.008-0.076-0.018-0.115-0.027-0.025-0.006-0.053-0.014-0.078-0.02-0.045-0.012-0.088-0.021-0.135-0.033-0.023-0.005-0.051-0.012-0.076-0.019-0.051-0.011-0.1-0.023-0.152-0.035-0.016-0.005-0.029-0.009-0.044-0.013-0.287-0.067-0.616-0.144-0.981-0.229-0.01-0.002-0.021-0.003-0.029-0.005-0.086-0.021-0.17-0.038-0.258-0.06-0.021-0.004-0.043-0.01-0.064-0.015-0.081-0.02-0.166-0.036-0.251-0.057-0.035-0.009-0.068-0.015-0.103-0.022-0.076-0.019-0.151-0.035-0.229-0.052-0.061-0.015-0.123-0.028-0.186-0.042-0.052-0.012-0.101-0.021-0.152-0.034-0.258-0.059-0.528-0.12-0.812-0.182-0.783-0.177-1.688-0.377-2.584-0.582l3.348-3.35-0.787-0.785-3.838 3.838c-0.702-0.166-1.358-0.324-1.896-0.464l4.173-4.172-0.785-0.786-4.603 4.6c-0.03-0.012-0.06-0.024-0.082-0.035-0.271-0.135-0.786-0.431-1.429-0.812l5.436-5.434c1.789 0.087 3.788 0.182 5.869 0.28C74.115 47.23 75.845 48.663 76.518 49.675zM57.007 45.091l-1.922 1.922C55.355 46.324 55.909 45.426 57.007 45.091zM58.68 44.99c0.377 0.021 1.004 0.052 1.836 0.096l-3.608 3.607c-0.423-0.262-0.826-0.514-1.188-0.743L58.68 44.99zM62.014 45.162c0.68 0.033 1.434 0.071 2.246 0.111l-4.919 4.918c-0.47-0.285-0.968-0.59-1.463-0.895L62.014 45.162zM96.566 43.013c-0.355 1.083-1.942 1.68-4.469 1.68-0.395 0-0.861-0.005-1.39-0.013v-1.216h-1.12v1.193c-0.512-0.012-1.068-0.026-1.668-0.044v-1.775h-1.113v1.741c-0.525-0.016-1.084-0.035-1.666-0.056v-1.686h-1.113v1.646c-0.533-0.019-1.09-0.041-1.668-0.062v-1.444h-1.111v1.4c-0.54-0.022-1.094-0.044-1.668-0.068v-1.192h-1.112v1.146c-0.542-0.022-1.099-0.048-1.667-0.071v-2.047h-1.111v1.997c-0.547-0.024-1.102-0.049-1.668-0.075v-1.922h-1.112v1.871c-0.125-0.006-0.251-0.012-0.378-0.017-0.129-0.006-0.258-0.013-0.385-0.018l0 0-0.225-0.011c-0.229-0.01-0.455-0.02-0.684-0.031V41.45h-1.109v2.437c-0.566-0.027-1.121-0.054-1.669-0.079v-3.192h-1.11v3.139c-0.189-0.008-0.377-0.017-0.562-0.027-0.006 0-0.01 0-0.018-0.001-0.154-0.006-0.31-0.014-0.461-0.022-0.084-0.005-0.168-0.007-0.252-0.013-0.09-0.004-0.179-0.008-0.268-0.013-0.036-0.002-0.072-0.003-0.107-0.005v-3.892H64.57v3.837c-0.057-0.003-0.112-0.005-0.168-0.008-0.114-0.006-0.229-0.012-0.34-0.017-0.09-0.004-0.177-0.01-0.263-0.014-0.065-0.004-0.127-0.007-0.188-0.009-0.114-0.006-0.229-0.013-0.338-0.018-0.068-0.003-0.139-0.007-0.205-0.011-0.057-0.003-0.11-0.006-0.166-0.008v-4.033h-1.111v3.978c-0.633-0.032-1.193-0.062-1.669-0.085V40.06h-1.111v3.277c-0.401-0.02-0.623-0.032-0.631-0.032-0.155-0.012-0.305-0.018-0.452-0.018-0.203 0-0.398 0.012-0.586 0.034V41.17H56.23v2.42c-0.686 0.262-1.234 0.675-1.668 1.149v-2.458h-1.11v4.306c-0.194 0.524-0.278 0.983-0.278 1.255v0.445l0.371 0.25c1.195 0.796 6.264 3.949 7.456 4.545 0.706 0.354 3.403 0.97 7.438 1.873 1.926 0.43 3.744 0.837 4.205 0.992 0.023 0.007 0.049 0.019 0.074 0.029 0.02 0.008 0.038 0.015 0.061 0.027 0.563 0.28 1.582 1.243 1.908 2.326 0.168 0.57 0.105 1.04-0.197 1.436-0.094 0.078-0.256 0.154-0.467 0.229v-0.597h-1.112v0.885c-0.472 0.094-1.028 0.186-1.669 0.271v-1.504h-1.11v1.643c-0.522 0.059-1.078 0.115-1.669 0.172v-1.256h-1.111v1.354c-0.367 0.03-0.742 0.061-1.131 0.088l-0.535 0.037v-1.896h-1.113v1.97c-0.553 0.034-1.109 0.067-1.668 0.099v-1.648h-1.11v1.705c-0.562 0.025-1.119 0.054-1.669 0.076v-2.478h-1.111v2.521c-0.57 0.023-1.13 0.043-1.669 0.061v-2.859h-1.11v2.896c-0.592 0.016-1.148 0.031-1.668 0.044v-3.078h-1.111v3.104c-0.67 0.015-1.234 0.025-1.668 0.033v-3.693h-1.113v3.703c-0.121-0.002-0.313-0.006-0.556-0.011-0.007 0-0.014 0-0.02-0.002-0.036 0-0.072 0-0.111-0.001-0.278-0.006-0.611-0.012-0.98-0.017v-4.23h-1.113V61.6l-0.543-0.009 0.002 0.005c-0.373-0.003-0.752-0.006-1.127-0.007V56.83h-1.111v4.763c-0.693 0.005-1.25 0.019-1.668 0.039v-5.636h-1.111v5.763c-0.484 0.087-1.05 0.212-1.668 0.351v-6.112h-1.111v6.354c-0.541 0.117-1.104 0.231-1.669 0.328v-7.945h-1.112v8.106c-0.528 0.063-1.049 0.104-1.535 0.104-0.078 0-0.15-0.002-0.225-0.006v-9.746h-1.113v9.619c-0.035-0.006-0.075-0.015-0.111-0.023-0.561-0.146-1.076-0.289-1.557-0.426V52.232h-1.11v9.799c-0.668-0.205-1.226-0.393-1.668-0.547V50.993h-1.111v10.082c-0.088-0.034-0.139-0.054-0.141-0.056l-0.119-0.051-1.409-0.127v-9.851h-1.111v9.751l-1.668-0.148v-8.642h-1.111v8.541l-1.668-0.147v-6.613h-1.112v6.514l-1.667-0.15v-4.955h-1.111v4.855l-1.67-0.148v-3.296h-1.111v1.65c-1.484-5.243-0.205-12.843 2.316-15.95 0.062-0.077 0.126-0.154 0.193-0.232 2.547 0.33 5.82 0.729 8.176 0.921l0.025 0.072 0.727-0.016c1.059 0.072 1.732 0.079 2.125 0.017 0.783-0.12 2.654-1.175 6.473-3.362 4.813-2.752 12.084-6.913 14.351-6.913 4.333 0 44.996 7.453 47.275 8.222C96.357 41.214 96.844 42.168 96.566 43.013z" fill="#551e19" data-fill-palette-color="accent"></path></g></svg></g></svg></g></svg></g><defs></defs></svg><rect width="309.1960649142857" height="247.2" fill="none" stroke="none" visibility="hidden"></rect></g></svg></g></svg>